<svg width="48" height="48" viewBox="0 0 48 48" fill="none" xmlns="http://www.w3.org/2000/svg">
<path fill-rule="evenodd" clip-rule="evenodd" d="M9.04737 30.5465C9.76559 30.1336 10.6825 30.3812 11.0954 31.0994C12.4211 33.4055 14.3093 35.3384 16.5839 36.7176C18.8584 38.0968 21.4453 38.8774 24.1031 38.9867C24.9308 39.0207 25.5743 39.7193 25.5402 40.5471C25.5062 41.3748 24.8076 42.0182 23.9799 41.9842C20.8158 41.8541 17.7362 40.9248 15.0284 39.2828C12.3206 37.6409 10.0727 35.3399 8.49449 32.5945C8.08162 31.8763 8.32916 30.9594 9.04737 30.5465Z" fill="#646676"/>
<path fill-rule="evenodd" clip-rule="evenodd" d="M40.4526 15.9535C39.7344 16.3664 38.8175 16.1188 38.4046 15.4006C37.0789 13.0945 35.1907 11.1616 32.9161 9.78241C30.6416 8.4032 28.0547 7.62256 25.3969 7.5133C24.5692 7.47927 23.9257 6.78068 23.9598 5.95295C23.9938 5.12522 24.6924 4.4818 25.5201 4.51583C28.6842 4.6459 31.7638 5.57524 34.4716 7.21715C37.1794 8.85907 39.4273 11.1601 41.0055 13.9055C41.4184 14.6237 41.1708 15.5406 40.4526 15.9535Z" fill="#646676"/>
<path fill-rule="evenodd" clip-rule="evenodd" d="M12 6C10.3431 6 9 7.34315 9 9C9 10.6569 10.3431 12 12 12C13.6569 12 15 10.6569 15 9C15 7.34315 13.6569 6 12 6ZM6 9C6 5.68629 8.68629 3 12 3C15.3137 3 18 5.68629 18 9C18 12.3137 15.3137 15 12 15C8.68629 15 6 12.3137 6 9Z" fill="#FF3D00"/>
<path fill-rule="evenodd" clip-rule="evenodd" d="M36 22.5C34.3431 22.5 33 23.8431 33 25.5C33 27.1569 34.3431 28.5 36 28.5C37.6569 28.5 39 27.1569 39 25.5C39 23.8431 37.6569 22.5 36 22.5ZM30 25.5C30 22.1863 32.6863 19.5 36 19.5C39.3137 19.5 42 22.1863 42 25.5C42 28.8137 39.3137 31.5 36 31.5C32.6863 31.5 30 28.8137 30 25.5Z" fill="#FF3D00"/>
<path fill-rule="evenodd" clip-rule="evenodd" d="M12 19.5C8.68629 19.5 6 22.1863 6 25.5V27C6 27.8284 5.32843 28.5 4.5 28.5C3.67157 28.5 3 27.8284 3 27V25.5C3 20.5294 7.02944 16.5 12 16.5C16.9706 16.5 21 20.5294 21 25.5V27C21 27.8284 20.3284 28.5 19.5 28.5C18.6716 28.5 18 27.8284 18 27V25.5C18 22.1863 15.3137 19.5 12 19.5Z" fill="#FF3D00"/>
<path fill-rule="evenodd" clip-rule="evenodd" d="M36 36C32.6863 36 30 38.6863 30 42V43.5C30 44.3284 29.3284 45 28.5 45C27.6716 45 27 44.3284 27 43.5V42C27 37.0294 31.0294 33 36 33C40.9706 33 45 37.0294 45 42V43.5C45 44.3284 44.3284 45 43.5 45C42.6716 45 42 44.3284 42 43.5V42C42 38.6863 39.3137 36 36 36Z" fill="#FF3D00"/>
</svg>
