<svg width="58" height="56" viewBox="0 0 58 56" fill="none" xmlns="http://www.w3.org/2000/svg">
<path fill-rule="evenodd" clip-rule="evenodd" d="M11.7812 22.75C11.2807 22.75 10.875 23.1418 10.875 23.625C10.875 24.1082 11.2807 24.5 11.7812 24.5C12.2818 24.5 12.6875 24.1082 12.6875 23.625C12.6875 23.1418 12.2818 22.75 11.7812 22.75ZM7.25 23.625C7.25 21.2088 9.27871 19.25 11.7812 19.25C14.2838 19.25 16.3125 21.2088 16.3125 23.625C16.3125 26.0412 14.2838 28 11.7812 28C9.27871 28 7.25 26.0412 7.25 23.625Z" fill="#646676"/>
<path fill-rule="evenodd" clip-rule="evenodd" d="M11.7812 29.75C10.9677 29.75 10.3406 29.9419 9.8387 30.2191C8.99379 30.6857 8.30622 31.7567 7.82346 33.0381C7.59834 33.6355 7.44824 34.197 7.35486 34.61C7.30851 34.815 7.27702 34.9795 7.25769 35.0887C7.24804 35.1432 7.24147 35.1836 7.23764 35.2081L7.23391 35.2326C7.10107 36.1901 6.18962 36.8624 5.1977 36.7346C4.20548 36.6068 3.50847 35.7265 3.64089 34.7685L5.43747 35C3.64089 34.7685 3.64083 34.769 3.64089 34.7685L3.64152 34.764L3.6424 34.7578L3.64495 34.7402L3.65336 34.6849C3.66049 34.6394 3.67074 34.5768 3.68452 34.4989C3.71205 34.3435 3.75385 34.1263 3.81326 33.8636C3.93139 33.3411 4.12264 32.6225 4.41686 31.8415C4.97278 30.3661 6.03587 28.2871 8.03884 27.1809C9.08639 26.6024 10.3336 26.25 11.7812 26.25C15.4325 26.25 17.4989 28.7164 18.5499 30.7044C19.0876 31.7216 19.4251 32.7208 19.6282 33.4542C19.7307 33.8245 19.8014 34.1358 19.8472 34.3595C19.8702 34.4715 19.887 34.5621 19.8986 34.6279C19.9044 34.6607 19.9089 34.6874 19.9122 34.7075L19.9162 34.7326L19.9176 34.7413L19.9181 34.7447C19.9182 34.7454 19.9185 34.7474 18.1795 34.9923L19.9185 34.7475C20.0629 35.7038 19.3771 36.5922 18.3865 36.7317C17.3975 36.8709 16.4787 36.2109 16.3321 35.2569L16.3314 35.2523L16.325 35.2149C16.3185 35.1781 16.3075 35.1183 16.2912 35.039C16.2586 34.8799 16.2054 34.6443 16.1262 34.3583C15.9658 33.7792 15.7085 33.0284 15.3211 32.2956C14.5218 30.7836 13.4164 29.75 11.7812 29.75ZM16.3318 35.2549C16.3318 35.2546 16.3318 35.2551 16.3318 35.2549V35.2549ZM16.3318 35.2549C16.3317 35.2544 16.3314 35.2529 16.3314 35.2523L18.125 35C16.3314 35.2525 16.3317 35.2543 16.3318 35.2549Z" fill="#646676"/>
<path fill-rule="evenodd" clip-rule="evenodd" d="M44.4062 7C43.9057 7 43.5 7.39175 43.5 7.875C43.5 8.35825 43.9057 8.75 44.4062 8.75C44.9068 8.75 45.3125 8.35825 45.3125 7.875C45.3125 7.39175 44.9068 7 44.4062 7ZM39.875 7.875C39.875 5.45875 41.9037 3.5 44.4062 3.5C46.9088 3.5 48.9375 5.45875 48.9375 7.875C48.9375 10.2912 46.9088 12.25 44.4062 12.25C41.9037 12.25 39.875 10.2912 39.875 7.875Z" fill="#646676"/>
<path fill-rule="evenodd" clip-rule="evenodd" d="M44.4062 14C43.5927 14 42.9656 14.1919 42.4637 14.4691C41.6188 14.9357 40.9312 16.0067 40.4485 17.2881C40.2233 17.8855 40.0732 18.447 39.9799 18.86C39.9335 19.065 39.902 19.2295 39.8827 19.3387C39.873 19.3932 39.8665 19.4336 39.8626 19.4581L39.8589 19.4826C39.7261 20.4401 38.8146 21.1124 37.8227 20.9846C36.8305 20.8568 36.1335 19.9765 36.2659 19.0185L38.0625 19.25C36.2659 19.0185 36.2658 19.019 36.2659 19.0185L36.2665 19.014L36.2674 19.0078L36.2699 18.9902L36.2784 18.9349C36.2855 18.8894 36.2957 18.8268 36.3095 18.7489C36.337 18.5935 36.3789 18.3763 36.4383 18.1136C36.5564 17.5911 36.7476 16.8725 37.0419 16.0915C37.5978 14.6161 38.6609 12.5371 40.6638 11.4309C41.7114 10.8524 42.9586 10.5 44.4062 10.5C48.0575 10.5 50.1239 12.9664 51.1749 14.9544C51.7126 15.9716 52.05 16.9708 52.2532 17.7042C52.3557 18.0745 52.4264 18.3858 52.4722 18.6095C52.4952 18.7215 52.512 18.8121 52.5236 18.8779C52.5294 18.9107 52.5339 18.9374 52.5372 18.9575L52.5412 18.9826L52.5426 18.9913L52.5431 18.9947C52.5432 18.9954 52.5435 18.9974 50.8045 19.2423L52.5435 18.9975C52.6879 19.9538 52.0021 20.8422 51.0115 20.9817C50.0225 21.1209 49.1037 20.4609 48.9571 19.5069L48.9564 19.5023L48.95 19.4649C48.9435 19.4281 48.9325 19.3683 48.9162 19.289C48.8836 19.1299 48.8304 18.8943 48.7512 18.6083C48.5908 18.0292 48.3335 17.2784 47.9461 16.5456C47.1468 15.0336 46.0414 14 44.4062 14ZM48.9568 19.5049C48.9567 19.5046 48.9568 19.5051 48.9568 19.5049V19.5049ZM48.9568 19.5049C48.9567 19.5044 48.9564 19.5029 48.9564 19.5023L50.75 19.25C48.9564 19.5025 48.9567 19.5043 48.9568 19.5049Z" fill="#646676"/>
<path fill-rule="evenodd" clip-rule="evenodd" d="M44.4062 22.75C43.9057 22.75 43.5 23.1418 43.5 23.625C43.5 24.1082 43.9057 24.5 44.4062 24.5C44.9068 24.5 45.3125 24.1082 45.3125 23.625C45.3125 23.1418 44.9068 22.75 44.4062 22.75ZM39.875 23.625C39.875 21.2088 41.9037 19.25 44.4062 19.25C46.9088 19.25 48.9375 21.2088 48.9375 23.625C48.9375 26.0412 46.9088 28 44.4062 28C41.9037 28 39.875 26.0412 39.875 23.625Z" fill="#646676"/>
<path fill-rule="evenodd" clip-rule="evenodd" d="M44.4062 29.75C43.5927 29.75 42.9656 29.9419 42.4637 30.2191C41.6188 30.6857 40.9312 31.7567 40.4485 33.0381C40.2233 33.6355 40.0732 34.197 39.9799 34.61C39.9335 34.815 39.902 34.9795 39.8827 35.0887C39.873 35.1432 39.8665 35.1836 39.8626 35.2081L39.8589 35.2326C39.7261 36.1901 38.8146 36.8624 37.8227 36.7346C36.8305 36.6068 36.1335 35.7265 36.2659 34.7685L38.0625 35C36.2659 34.7685 36.2658 34.769 36.2659 34.7685L36.2665 34.764L36.2674 34.7578L36.2699 34.7402L36.2784 34.6849C36.2855 34.6394 36.2957 34.5768 36.3095 34.4989C36.337 34.3435 36.3789 34.1263 36.4383 33.8636C36.5564 33.3411 36.7476 32.6225 37.0419 31.8415C37.5978 30.3661 38.6609 28.2871 40.6638 27.1809C41.7114 26.6024 42.9586 26.25 44.4062 26.25C48.0575 26.25 50.1239 28.7164 51.1749 30.7044C51.7126 31.7216 52.05 32.7208 52.2532 33.4542C52.3557 33.8245 52.4264 34.1358 52.4722 34.3595C52.4952 34.4715 52.512 34.5621 52.5236 34.6279C52.5294 34.6607 52.5339 34.6874 52.5372 34.7075L52.5412 34.7326L52.5426 34.7413L52.5431 34.7447C52.5432 34.7454 52.5435 34.7474 50.8045 34.9923L52.5435 34.7475C52.6879 35.7038 52.0021 36.5922 51.0115 36.7317C50.0225 36.8709 49.1037 36.2109 48.9571 35.2569L48.9564 35.2523L48.95 35.2149C48.9435 35.1781 48.9325 35.1183 48.9162 35.039C48.8836 34.8799 48.8304 34.6443 48.7512 34.3583C48.5908 33.7792 48.3335 33.0284 47.9461 32.2956C47.1468 30.7836 46.0414 29.75 44.4062 29.75ZM48.9568 35.2549C48.9567 35.2546 48.9568 35.2551 48.9568 35.2549V35.2549ZM48.9568 35.2549C48.9567 35.2544 48.9564 35.2529 48.9564 35.2523L50.75 35C48.9564 35.2525 48.9567 35.2543 48.9568 35.2549Z" fill="#646676"/>
<path fill-rule="evenodd" clip-rule="evenodd" d="M44.4062 38.5C43.9057 38.5 43.5 38.8918 43.5 39.375C43.5 39.8582 43.9057 40.25 44.4062 40.25C44.9068 40.25 45.3125 39.8582 45.3125 39.375C45.3125 38.8918 44.9068 38.5 44.4062 38.5ZM39.875 39.375C39.875 36.9588 41.9037 35 44.4062 35C46.9088 35 48.9375 36.9588 48.9375 39.375C48.9375 41.7912 46.9088 43.75 44.4062 43.75C41.9037 43.75 39.875 41.7912 39.875 39.375Z" fill="#646676"/>
<path fill-rule="evenodd" clip-rule="evenodd" d="M44.4062 45.5C43.5927 45.5 42.9656 45.6919 42.4637 45.9691C41.6188 46.4357 40.9312 47.5067 40.4485 48.7881C40.2233 49.3855 40.0732 49.947 39.9799 50.36C39.9335 50.565 39.902 50.7295 39.8827 50.8387C39.873 50.8932 39.8665 50.9336 39.8626 50.9581L39.8589 50.9826C39.7261 51.9401 38.8146 52.6124 37.8227 52.4846C36.8305 52.3568 36.1335 51.4765 36.2659 50.5185L38.0625 50.75C36.2659 50.5185 36.2658 50.519 36.2659 50.5185L36.2665 50.514L36.2674 50.5078L36.2699 50.4902L36.2784 50.4349C36.2855 50.3894 36.2957 50.3268 36.3095 50.2489C36.337 50.0935 36.3789 49.8763 36.4383 49.6136C36.5564 49.0911 36.7476 48.3725 37.0419 47.5915C37.5978 46.1161 38.6609 44.0371 40.6638 42.9309C41.7114 42.3524 42.9586 42 44.4062 42C48.0575 42 50.1239 44.4664 51.1749 46.4544C51.7126 47.4716 52.05 48.4708 52.2532 49.2042C52.3557 49.5745 52.4264 49.8858 52.4722 50.1095C52.4952 50.2215 52.512 50.3121 52.5236 50.3779C52.5294 50.4107 52.5339 50.4374 52.5372 50.4575L52.5412 50.4826L52.5426 50.4913L52.5431 50.4947C52.5432 50.4954 52.5435 50.4974 50.8045 50.7423L52.5435 50.4975C52.6879 51.4538 52.0021 52.3422 51.0115 52.4817C50.0225 52.6209 49.1037 51.9609 48.9571 51.0069L48.9564 51.0023L48.95 50.9649C48.9435 50.9281 48.9325 50.8683 48.9162 50.789C48.8836 50.6299 48.8304 50.3943 48.7512 50.1083C48.5908 49.5292 48.3335 48.7784 47.9461 48.0456C47.1468 46.5336 46.0414 45.5 44.4062 45.5ZM48.9568 51.0049C48.9567 51.0046 48.9568 51.0051 48.9568 51.0049V51.0049ZM48.9568 51.0049C48.9567 51.0044 48.9564 51.0029 48.9564 51.0023L50.75 50.75C48.9564 51.0025 48.9567 51.0043 48.9568 51.0049Z" fill="#646676"/>
<path fill-rule="evenodd" clip-rule="evenodd" d="M23.5625 12.25C23.5625 11.2835 24.374 10.5 25.375 10.5H34.4375C35.4385 10.5 36.25 11.2835 36.25 12.25C36.25 13.2165 35.4385 14 34.4375 14H27.1875V26.25H34.4375C35.4385 26.25 36.25 27.0335 36.25 28C36.25 28.9665 35.4385 29.75 34.4375 29.75H27.1875V42H34.4375C35.4385 42 36.25 42.7835 36.25 43.75C36.25 44.7165 35.4385 45.5 34.4375 45.5H25.375C24.374 45.5 23.5625 44.7165 23.5625 43.75V29.75H19.9375C18.9365 29.75 18.125 28.9665 18.125 28C18.125 27.0335 18.9365 26.25 19.9375 26.25H23.5625V12.25Z" fill="#FF3D00"/>
</svg>
