<svg width="50" height="50" viewBox="0 0 50 50" fill="none" xmlns="http://www.w3.org/2000/svg">
<path fill-rule="evenodd" clip-rule="evenodd" d="M3.125 7.8125C3.125 5.22367 5.22367 3.125 7.8125 3.125H42.1875C44.7763 3.125 46.875 5.22367 46.875 7.8125C46.875 10.4013 44.7763 12.5 42.1875 12.5H7.8125C5.22367 12.5 3.125 10.4013 3.125 7.8125ZM7.8125 6.25C6.94956 6.25 6.25 6.94956 6.25 7.8125C6.25 8.67545 6.94956 9.375 7.8125 9.375H42.1875C43.0504 9.375 43.75 8.67545 43.75 7.8125C43.75 6.94955 43.0504 6.25 42.1875 6.25H7.8125Z" fill="#646676"/>
<path fill-rule="evenodd" clip-rule="evenodd" d="M3.125 32.8125C3.125 30.2237 5.22367 28.125 7.8125 28.125H42.1875C44.7763 28.125 46.875 30.2237 46.875 32.8125C46.875 35.4013 44.7763 37.5 42.1875 37.5H7.8125C5.22367 37.5 3.125 35.4013 3.125 32.8125ZM7.8125 31.25C6.94956 31.25 6.25 31.9496 6.25 32.8125C6.25 33.6754 6.94956 34.375 7.8125 34.375H42.1875C43.0504 34.375 43.75 33.6754 43.75 32.8125C43.75 31.9496 43.0504 31.25 42.1875 31.25H7.8125Z" fill="#646676"/>
<path fill-rule="evenodd" clip-rule="evenodd" d="M6.25 10.9375C6.25 10.0746 6.94956 9.375 7.8125 9.375H42.1875C43.0504 9.375 43.75 10.0746 43.75 10.9375V29.6875C43.75 30.5504 43.0504 31.25 42.1875 31.25H7.8125C6.94956 31.25 6.25 30.5504 6.25 29.6875V10.9375ZM9.375 12.5V28.125H40.625V12.5H9.375Z" fill="#646676"/>
<path fill-rule="evenodd" clip-rule="evenodd" d="M24.9999 34.375C25.5019 34.375 25.9732 34.6161 26.267 35.0231L33.0328 44.3981C33.5378 45.0979 33.3799 46.0745 32.6802 46.5795C31.9804 47.0845 31.0038 46.9266 30.4988 46.2269L24.9999 38.6075L19.5011 46.2269C18.9961 46.9266 18.0195 47.0845 17.3197 46.5795C16.62 46.0745 16.4621 45.0979 16.9671 44.3981L23.7329 35.0231C24.0267 34.6161 24.498 34.375 24.9999 34.375Z" fill="#646676"/>
<path fill-rule="evenodd" clip-rule="evenodd" d="M37.0893 14.5692C37.6724 15.2053 37.6295 16.1937 36.9933 16.7768L27.6183 25.3706C27.0742 25.8694 26.2551 25.9193 25.6543 25.4902L21.1815 22.2953L16.6419 26.1863C15.9867 26.7479 15.0003 26.6721 14.4387 26.0169C13.8771 25.3617 13.953 24.3753 14.6082 23.8137L20.0769 19.1262C20.6226 18.6584 21.4171 18.6233 22.002 19.0411L26.4402 22.2112L34.8817 14.4732C35.5178 13.8901 36.5062 13.9331 37.0893 14.5692Z" fill="#FF3D00"/>
</svg>
